<svg width="671" height="249" viewBox="0 0 671 249" fill="none" xmlns="http://www.w3.org/2000/svg">
<g clip-path="url(#clip0_233_1245)">
<path d="M238.666 117.879H194.531V58.094H236.255C242.24 58.094 246.617 59.3949 249.387 61.9968C252.158 64.5986 253.543 68.4186 253.543 73.4555V103.181C253.543 104.399 253.377 105.672 253.044 107.001C252.712 108.33 252.103 109.575 251.216 110.737C249.498 113.284 247.67 115.11 245.731 116.217C243.791 117.325 241.436 117.879 238.666 117.879ZM212.485 102.352H235.59V73.6223H212.485V102.352Z" fill="#0088AF"></path>
<path d="M278.645 58.095H260.691V117.879H278.645V58.095Z" fill="#0088AF"></path>
<path d="M285.878 102.517L285.795 101.023V74.7834C285.795 73.0123 285.989 71.4348 286.377 70.051C287.43 66.1212 289.452 63.0761 292.444 60.9175C295.048 59.0355 298.262 58.094 302.086 58.094H345.388V73.6213H303.748V102.352H327.519V82.2565H345.472V103.763C345.472 106.033 345.25 107.859 344.807 109.243C344.364 110.627 343.56 112.011 342.397 113.395C340.956 115.11 339.294 116.287 337.41 116.923C335.526 117.56 332.728 117.879 329.015 117.879H298.345C297.071 117.879 295.63 117.546 294.024 116.882C291.364 115.719 289.397 114.087 288.123 111.983C286.626 109.547 285.878 106.392 285.878 102.517Z" fill="#0088AF"></path>
<path d="M370.57 58.095H352.617V117.879H370.57V58.095Z" fill="#0088AF"></path>
<path d="M392.097 73.6213H374.145V58.094H428.003V73.6213H410.05V117.879H392.097V73.6213Z" fill="#0088AF"></path>
<path d="M449.53 117.879H431.578V73.0402L431.744 71.0474C432.298 67.4491 433.281 64.7504 434.694 62.9513C436.107 61.1531 438.31 59.7554 441.302 58.7589C441.967 58.5373 442.798 58.3716 443.796 58.2607C444.793 58.1499 446.15 58.094 447.868 58.094H473.884C476.155 58.094 478.025 58.4265 479.494 59.0904C480.962 59.7554 482.472 60.9724 484.024 62.7446C486.406 65.3455 487.598 68.6672 487.598 72.7077V117.879H469.644V94.7956H449.53V117.879ZM449.53 82.0079H469.644V73.6213H449.53V82.0079Z" fill="#0088AF"></path>
<path d="M542.62 117.879H494.746V58.094H512.699V102.352H542.62V117.879Z" fill="#0088AF"></path>
<path d="M564.147 117.879H546.193V58.094H569.051L588.416 87.8207V58.094H606.369V117.879H588.416L564.147 79.2673V117.879Z" fill="#0088AF"></path>
<path d="M631.47 117.879H613.518V73.0402L613.683 71.0474C614.238 67.4491 615.222 64.7504 616.635 62.9513C618.047 61.1531 620.25 59.7554 623.242 58.7589C623.906 58.5373 624.738 58.3716 625.735 58.2607C626.733 58.1499 628.09 58.094 629.808 58.094H655.823C658.095 58.094 659.965 58.4265 661.433 59.0904C662.902 59.7554 664.412 60.9724 665.963 62.7446C668.346 65.3455 669.537 68.6672 669.537 72.7077V117.879H651.584V94.7956H631.47V117.879ZM631.47 82.0079H651.584V73.6213H631.47V82.0079Z" fill="#0088AF"></path>
<path d="M235.054 189.764H194.264V134.51H232.827C238.357 134.51 242.403 135.712 244.964 138.117C247.524 140.522 248.805 144.052 248.805 148.708V176.181C248.805 177.307 248.651 178.483 248.344 179.711C248.037 180.939 247.473 182.091 246.654 183.165C245.066 185.518 243.376 187.207 241.584 188.23C239.79 189.253 237.615 189.764 235.054 189.764ZM210.857 175.414H232.212V148.862H210.857V175.414Z" fill="#DBAF52"></path>
<path d="M272.003 189.764H255.41V148.323L255.564 146.482C256.076 143.157 256.984 140.663 258.29 138.999C259.597 137.337 261.632 136.045 264.398 135.124C265.012 134.92 265.781 134.766 266.702 134.664C267.625 134.561 268.879 134.51 270.467 134.51H294.511C296.611 134.51 298.339 134.817 299.696 135.431C301.054 136.045 302.449 137.171 303.883 138.808C306.085 141.213 307.186 144.282 307.186 148.017V189.764H290.593V168.43H272.003V189.764ZM272.003 156.612H290.593V148.862H272.003V156.612Z" fill="#DBAF52"></path>
<path d="M358.039 189.764H313.791V134.51H330.384V175.414H358.039V189.764Z" fill="#DBAF52"></path>
<path d="M377.934 189.764H361.342V134.51H384.541L393.452 171.807L402.286 134.51H425.485V189.764H408.892V151.087L398.292 189.764H388.305L377.934 151.087V189.764Z" fill="#DBAF52"></path>
<path d="M448.687 189.764H432.094V148.323L432.248 146.482C432.758 143.157 433.668 140.663 434.974 138.999C436.279 137.337 438.316 136.045 441.081 135.124C441.696 134.92 442.465 134.766 443.386 134.664C444.307 134.561 445.562 134.51 447.15 134.51H471.194C473.294 134.51 475.023 134.817 476.379 135.431C477.736 136.045 479.132 137.171 480.567 138.808C482.767 141.213 483.87 144.282 483.87 148.017V189.764H467.277V168.43H448.687V189.764ZM448.687 156.612H467.277V148.862H448.687V156.612Z" fill="#DBAF52"></path>
<path d="M490.552 175.491L490.475 174.186V149.936C490.475 148.298 490.653 146.84 491.012 145.561C491.985 141.929 493.855 139.115 496.62 137.119C499.026 135.38 501.998 134.51 505.532 134.51H539.408V148.862H507.068V175.414H539.408V189.764H502.381C500.999 189.764 499.616 189.484 498.233 188.921C495.825 187.897 493.982 186.363 492.702 184.316C491.268 182.014 490.552 179.072 490.552 175.491Z" fill="#DBAF52"></path>
<path d="M562.609 134.51H546.016V189.765H562.609V134.51Z" fill="#DBAF52"></path>
<path d="M568.138 183.165C566.756 181.17 566.064 178.637 566.064 175.567V165.054H582.658V175.414H595.947V134.51H612.54V179.405C612.54 180.376 612.322 181.387 611.886 182.436C611.451 183.484 610.747 184.598 609.774 185.774C607.572 188.435 604.474 189.764 600.479 189.764H576.896C576.383 189.764 575.782 189.624 575.09 189.343C574.398 189.062 573.439 188.537 572.21 187.77C571.543 187.258 570.904 186.682 570.289 186.042C569.675 185.403 568.957 184.444 568.138 183.165Z" fill="#DBAF52"></path>
<path d="M635.818 189.764H619.225V148.323L619.379 146.482C619.89 143.157 620.799 140.663 622.105 138.999C623.411 137.337 625.447 136.045 628.212 135.124C628.827 134.92 629.595 134.766 630.517 134.664C631.439 134.561 632.694 134.51 634.282 134.51H658.325C660.425 134.51 662.154 134.817 663.51 135.431C664.867 136.045 666.264 137.171 667.698 138.808C669.898 141.213 671.001 144.282 671.001 148.017V189.764H654.408V168.43H635.818V189.764ZM635.818 156.612H654.408V148.862H635.818V156.612Z" fill="#DBAF52"></path>
<path d="M172.88 38H0V210.708H172.88V38Z" fill="#0088AF"></path>
<path d="M38.2959 124.371V105.144H19.0684V162.766H38.2959V143.579H57.5244V124.371H38.2959Z" fill="#DBAF52"></path>
<path d="M95.9755 105.163V85.9367H76.748V105.163H57.5234V124.372H76.748V143.559H95.9755V124.372H115.203V105.163H95.9755Z" fill="#DBAF52"></path>
<path d="M134.432 105.145V124.372H115.203V143.576H134.432V162.767H153.658V105.145H134.432Z" fill="#DBAF52"></path>
</g>
<defs>
<clipPath id="clip0_233_1245">
<rect width="670.95" height="248.5" fill="white"></rect>
</clipPath>
</defs>
</svg>